<svg width="66" height="68" viewBox="0 0 66 68" fill="none" xmlns="http://www.w3.org/2000/svg">
<g id="&#240;&#159;&#166;&#134; icon &#34;google 1&#34;">
<path id="Vector" d="M65.798 30.5419C65.6296 28.8245 64.1816 27.5449 62.4643 27.5449H37.0408C35.1887 27.5449 33.6734 29.0602 33.6734 30.9123V36.6704C33.6734 38.5225 35.1887 40.0378 37.0408 40.0378H52.2275C51.8571 43.1358 49.8367 47.8164 45.3581 50.948C42.4959 52.9347 38.6908 54.3154 33.6734 54.3154C33.4377 54.3154 33.2357 54.3154 33 54.2817C24.4133 54.0123 17.1398 48.2541 14.5133 40.3409C13.8061 38.2194 13.4021 35.997 13.4021 33.6735C13.4021 31.35 13.8061 29.0939 14.4796 27.0062C14.6816 26.4 14.9174 25.7939 15.1868 25.1878C18.2847 18.2174 25.0531 13.301 33 13.0653C33.202 13.0316 33.4377 13.0316 33.6734 13.0316C38.4888 13.0316 42.0918 14.6143 44.6173 16.3653C45.9306 17.2745 47.6816 17.0724 48.8265 15.9612L53.5071 11.3816C54.9888 9.93368 54.8541 7.47548 53.1704 6.26324C47.8163 2.32344 41.2836 0 33.6734 0C33.4377 0 33.2357 3.36879e-05 33 0.0337072C20.1031 0.269422 9.0245 7.74494 3.60307 18.5541C1.31327 23.1337 0 28.2521 0 33.6735C0 39.0949 1.31327 44.2133 3.60307 48.7929H3.63674C9.05817 59.6021 20.1368 67.0776 33 67.3133C33.2357 67.347 33.4377 67.347 33.6734 67.347C42.7653 67.347 50.4092 64.3501 55.9653 59.198C62.3296 53.3052 66 44.6847 66 34.4143C66 32.9664 65.9327 31.7204 65.798 30.5419Z" fill="#333333"/>
</g>
</svg>
