<svg width="37" height="32" viewBox="0 0 37 32" fill="none" xmlns="http://www.w3.org/2000/svg">
<g id="&#240;&#159;&#166;&#134; icon &#34;eye&#34;">
<g id="Group">
<path id="Vector" d="M24.9027 15.8084C24.9027 19.3495 22.0411 22.2111 18.5 22.2111C14.9589 22.2111 12.0974 19.3495 12.0974 15.8084C12.0974 12.2673 14.9589 9.40583 18.5 9.40583C22.0411 9.40583 24.9027 12.2673 24.9027 15.8084Z" stroke="#292D32" stroke-width="2" stroke-linecap="round" stroke-linejoin="round"/>
<path id="Vector_2" d="M18.5 30.5989C24.8133 30.5989 30.6972 26.8789 34.7928 20.4405C36.4024 17.9188 36.4024 13.6802 34.7928 11.1584C30.6972 4.71997 24.8133 1 18.5 1C12.1867 1 6.30275 4.71997 2.2072 11.1584C0.597599 13.6802 0.597599 17.9188 2.2072 20.4405C6.30275 26.8789 12.1867 30.5989 18.5 30.5989Z" stroke="#292D32" stroke-width="2" stroke-linecap="round" stroke-linejoin="round"/>
</g>
</g>
</svg>
